<mxfile host="app.diagrams.net" modified="2024-01-31T02:32:51.360Z" agent="Mozilla/5.0 (Windows NT 10.0; Win64; x64) AppleWebKit/537.36 (KHTML, like Gecko) Chrome/121.0.0.0 Safari/537.36" etag="DOUkD9gKPB3-Y025LQgZ" version="22.1.21" type="device">
  <diagram name="Strona-1" id="fWrfIdMhgX7kIjCxamw9">
    <mxGraphModel dx="1834" dy="746" grid="1" gridSize="10" guides="1" tooltips="1" connect="1" arrows="1" fold="1" page="0" pageScale="1" pageWidth="827" pageHeight="1169" math="0" shadow="0">
      <root>
        <mxCell id="0" />
        <mxCell id="1" parent="0" />
        <mxCell id="ZdInSMutTwXzW5y5Lh47-1" value="Gracz" style="shape=umlActor;verticalLabelPosition=bottom;verticalAlign=top;html=1;outlineConnect=0;" vertex="1" parent="1">
          <mxGeometry x="-60" y="250" width="30" height="60" as="geometry" />
        </mxCell>
        <mxCell id="ZdInSMutTwXzW5y5Lh47-3" value="Włączenie gry z drugim człowiekiem" style="ellipse;whiteSpace=wrap;html=1;" vertex="1" parent="1">
          <mxGeometry x="90" y="70" width="120" height="80" as="geometry" />
        </mxCell>
        <mxCell id="ZdInSMutTwXzW5y5Lh47-4" value="" style="endArrow=none;html=1;rounded=0;exitX=1;exitY=0.3333333333333333;exitDx=0;exitDy=0;exitPerimeter=0;entryX=0.067;entryY=0.713;entryDx=0;entryDy=0;entryPerimeter=0;" edge="1" parent="1" source="ZdInSMutTwXzW5y5Lh47-1" target="ZdInSMutTwXzW5y5Lh47-3">
          <mxGeometry width="50" height="50" relative="1" as="geometry">
            <mxPoint x="390" y="410" as="sourcePoint" />
            <mxPoint x="440" y="360" as="targetPoint" />
          </mxGeometry>
        </mxCell>
        <mxCell id="ZdInSMutTwXzW5y5Lh47-7" style="rounded=0;orthogonalLoop=1;jettySize=auto;html=1;endArrow=none;endFill=0;" edge="1" parent="1" source="ZdInSMutTwXzW5y5Lh47-6">
          <mxGeometry relative="1" as="geometry">
            <mxPoint x="-30" y="270" as="targetPoint" />
          </mxGeometry>
        </mxCell>
        <mxCell id="ZdInSMutTwXzW5y5Lh47-6" value="Włączenie gry z botem" style="ellipse;whiteSpace=wrap;html=1;" vertex="1" parent="1">
          <mxGeometry x="250" y="70" width="120" height="80" as="geometry" />
        </mxCell>
        <mxCell id="ZdInSMutTwXzW5y5Lh47-17" style="rounded=0;orthogonalLoop=1;jettySize=auto;html=1;" edge="1" parent="1" source="ZdInSMutTwXzW5y5Lh47-8" target="ZdInSMutTwXzW5y5Lh47-16">
          <mxGeometry relative="1" as="geometry" />
        </mxCell>
        <mxCell id="ZdInSMutTwXzW5y5Lh47-18" value="&amp;lt;&amp;lt;uses&amp;gt;&amp;gt;" style="edgeLabel;html=1;align=center;verticalAlign=middle;resizable=0;points=[];" vertex="1" connectable="0" parent="ZdInSMutTwXzW5y5Lh47-17">
          <mxGeometry x="0.181" y="-2" relative="1" as="geometry">
            <mxPoint as="offset" />
          </mxGeometry>
        </mxCell>
        <mxCell id="ZdInSMutTwXzW5y5Lh47-20" style="rounded=0;orthogonalLoop=1;jettySize=auto;html=1;entryX=0;entryY=0.5;entryDx=0;entryDy=0;endArrow=classic;endFill=1;" edge="1" parent="1" source="ZdInSMutTwXzW5y5Lh47-8" target="ZdInSMutTwXzW5y5Lh47-19">
          <mxGeometry relative="1" as="geometry" />
        </mxCell>
        <mxCell id="ZdInSMutTwXzW5y5Lh47-21" value="&amp;lt;&amp;lt;uses&amp;gt;&amp;gt;" style="edgeLabel;html=1;align=center;verticalAlign=middle;resizable=0;points=[];" vertex="1" connectable="0" parent="ZdInSMutTwXzW5y5Lh47-20">
          <mxGeometry x="0.2346" y="-3" relative="1" as="geometry">
            <mxPoint as="offset" />
          </mxGeometry>
        </mxCell>
        <mxCell id="ZdInSMutTwXzW5y5Lh47-23" style="rounded=0;orthogonalLoop=1;jettySize=auto;html=1;endArrow=none;endFill=0;startArrow=classic;startFill=1;" edge="1" parent="1" source="ZdInSMutTwXzW5y5Lh47-8" target="ZdInSMutTwXzW5y5Lh47-22">
          <mxGeometry relative="1" as="geometry" />
        </mxCell>
        <mxCell id="ZdInSMutTwXzW5y5Lh47-24" value="&amp;lt;&amp;lt;&amp;lt;uses&amp;gt;&amp;gt;" style="edgeLabel;html=1;align=center;verticalAlign=middle;resizable=0;points=[];" vertex="1" connectable="0" parent="ZdInSMutTwXzW5y5Lh47-23">
          <mxGeometry x="0.1092" y="-3" relative="1" as="geometry">
            <mxPoint as="offset" />
          </mxGeometry>
        </mxCell>
        <mxCell id="ZdInSMutTwXzW5y5Lh47-8" value="Wykonanie ruchu" style="ellipse;whiteSpace=wrap;html=1;" vertex="1" parent="1">
          <mxGeometry x="190" y="180" width="120" height="80" as="geometry" />
        </mxCell>
        <mxCell id="ZdInSMutTwXzW5y5Lh47-9" style="rounded=0;orthogonalLoop=1;jettySize=auto;html=1;entryX=1;entryY=0.3333333333333333;entryDx=0;entryDy=0;entryPerimeter=0;endArrow=none;endFill=0;" edge="1" parent="1" source="ZdInSMutTwXzW5y5Lh47-8" target="ZdInSMutTwXzW5y5Lh47-1">
          <mxGeometry relative="1" as="geometry" />
        </mxCell>
        <mxCell id="ZdInSMutTwXzW5y5Lh47-10" value="Pass" style="ellipse;whiteSpace=wrap;html=1;" vertex="1" parent="1">
          <mxGeometry x="470" y="180" width="120" height="80" as="geometry" />
        </mxCell>
        <mxCell id="ZdInSMutTwXzW5y5Lh47-12" value="" style="endArrow=classic;html=1;rounded=0;exitX=1;exitY=0.5;exitDx=0;exitDy=0;" edge="1" parent="1" source="ZdInSMutTwXzW5y5Lh47-8" target="ZdInSMutTwXzW5y5Lh47-10">
          <mxGeometry relative="1" as="geometry">
            <mxPoint x="320" y="320" as="sourcePoint" />
            <mxPoint x="420" y="320" as="targetPoint" />
          </mxGeometry>
        </mxCell>
        <mxCell id="ZdInSMutTwXzW5y5Lh47-13" value="&amp;lt;&amp;lt;uses&amp;gt;&amp;gt;" style="edgeLabel;resizable=0;html=1;align=center;verticalAlign=middle;" connectable="0" vertex="1" parent="ZdInSMutTwXzW5y5Lh47-12">
          <mxGeometry relative="1" as="geometry" />
        </mxCell>
        <mxCell id="ZdInSMutTwXzW5y5Lh47-16" value="Położenie kamienia" style="ellipse;whiteSpace=wrap;html=1;" vertex="1" parent="1">
          <mxGeometry x="390" y="100" width="120" height="80" as="geometry" />
        </mxCell>
        <mxCell id="ZdInSMutTwXzW5y5Lh47-19" value="Poddanie się" style="ellipse;whiteSpace=wrap;html=1;" vertex="1" parent="1">
          <mxGeometry x="480" y="270" width="120" height="80" as="geometry" />
        </mxCell>
        <mxCell id="ZdInSMutTwXzW5y5Lh47-22" value="Sprawdzenie poprawności ruchu" style="ellipse;whiteSpace=wrap;html=1;" vertex="1" parent="1">
          <mxGeometry x="370" y="330" width="120" height="80" as="geometry" />
        </mxCell>
        <mxCell id="ZdInSMutTwXzW5y5Lh47-26" style="rounded=0;orthogonalLoop=1;jettySize=auto;html=1;entryX=1;entryY=0.5;entryDx=0;entryDy=0;endArrow=none;endFill=0;" edge="1" parent="1" target="ZdInSMutTwXzW5y5Lh47-22">
          <mxGeometry relative="1" as="geometry">
            <mxPoint x="740" y="430" as="sourcePoint" />
          </mxGeometry>
        </mxCell>
        <mxCell id="ZdInSMutTwXzW5y5Lh47-32" style="rounded=0;orthogonalLoop=1;jettySize=auto;html=1;entryX=1;entryY=0.5;entryDx=0;entryDy=0;endArrow=none;endFill=0;" edge="1" parent="1" target="ZdInSMutTwXzW5y5Lh47-29">
          <mxGeometry relative="1" as="geometry">
            <mxPoint x="740" y="430" as="sourcePoint" />
          </mxGeometry>
        </mxCell>
        <mxCell id="ZdInSMutTwXzW5y5Lh47-25" value="System" style="shape=umlActor;verticalLabelPosition=bottom;verticalAlign=top;html=1;outlineConnect=0;" vertex="1" parent="1">
          <mxGeometry x="740" y="410" width="30" height="60" as="geometry" />
        </mxCell>
        <mxCell id="ZdInSMutTwXzW5y5Lh47-27" value="Obejrzenie zapisu rozgrywki" style="ellipse;whiteSpace=wrap;html=1;" vertex="1" parent="1">
          <mxGeometry x="50" y="300" width="120" height="80" as="geometry" />
        </mxCell>
        <mxCell id="ZdInSMutTwXzW5y5Lh47-28" style="rounded=0;orthogonalLoop=1;jettySize=auto;html=1;entryX=0.433;entryY=0.013;entryDx=0;entryDy=0;entryPerimeter=0;endArrow=none;endFill=0;" edge="1" parent="1" source="ZdInSMutTwXzW5y5Lh47-1" target="ZdInSMutTwXzW5y5Lh47-27">
          <mxGeometry relative="1" as="geometry" />
        </mxCell>
        <mxCell id="ZdInSMutTwXzW5y5Lh47-29" value="Odczyt z bazy danych" style="ellipse;whiteSpace=wrap;html=1;" vertex="1" parent="1">
          <mxGeometry x="110" y="450" width="120" height="80" as="geometry" />
        </mxCell>
        <mxCell id="ZdInSMutTwXzW5y5Lh47-30" style="rounded=0;orthogonalLoop=1;jettySize=auto;html=1;entryX=1;entryY=1;entryDx=0;entryDy=0;" edge="1" parent="1" source="ZdInSMutTwXzW5y5Lh47-29" target="ZdInSMutTwXzW5y5Lh47-27">
          <mxGeometry relative="1" as="geometry" />
        </mxCell>
        <mxCell id="ZdInSMutTwXzW5y5Lh47-31" value="&amp;lt;&amp;lt;uses&amp;gt;&amp;gt;" style="edgeLabel;html=1;align=center;verticalAlign=middle;resizable=0;points=[];" vertex="1" connectable="0" parent="ZdInSMutTwXzW5y5Lh47-30">
          <mxGeometry x="0.2686" y="-2" relative="1" as="geometry">
            <mxPoint as="offset" />
          </mxGeometry>
        </mxCell>
        <mxCell id="ZdInSMutTwXzW5y5Lh47-35" style="rounded=0;orthogonalLoop=1;jettySize=auto;html=1;entryX=0.5;entryY=1;entryDx=0;entryDy=0;" edge="1" parent="1" source="ZdInSMutTwXzW5y5Lh47-33" target="ZdInSMutTwXzW5y5Lh47-8">
          <mxGeometry relative="1" as="geometry" />
        </mxCell>
        <mxCell id="ZdInSMutTwXzW5y5Lh47-36" value="&amp;lt;&amp;lt;extends&amp;gt;&amp;gt;" style="edgeLabel;html=1;align=center;verticalAlign=middle;resizable=0;points=[];" vertex="1" connectable="0" parent="ZdInSMutTwXzW5y5Lh47-35">
          <mxGeometry x="-0.2245" y="3" relative="1" as="geometry">
            <mxPoint as="offset" />
          </mxGeometry>
        </mxCell>
        <mxCell id="ZdInSMutTwXzW5y5Lh47-33" value="Zapisanie ruchu do bazy" style="ellipse;whiteSpace=wrap;html=1;" vertex="1" parent="1">
          <mxGeometry x="230" y="390" width="120" height="80" as="geometry" />
        </mxCell>
        <mxCell id="ZdInSMutTwXzW5y5Lh47-34" style="rounded=0;orthogonalLoop=1;jettySize=auto;html=1;entryX=0;entryY=0.3333333333333333;entryDx=0;entryDy=0;entryPerimeter=0;endArrow=none;endFill=0;" edge="1" parent="1" source="ZdInSMutTwXzW5y5Lh47-33" target="ZdInSMutTwXzW5y5Lh47-25">
          <mxGeometry relative="1" as="geometry" />
        </mxCell>
      </root>
    </mxGraphModel>
  </diagram>
</mxfile>
